<?xml version="1.0" encoding="UTF-8"?>
<svg width="1003px" height="979px" viewBox="0 0 1003 979" version="1.1" xmlns="http://www.w3.org/2000/svg" xmlns:xlink="http://www.w3.org/1999/xlink">
    <!-- Generator: Sketch 59.1 (86144) - https://sketch.com -->
    <title>Group 10</title>
    <desc>Created with Sketch.</desc>
    <defs>
        <rect id="path-1" x="0" y="0" width="1001" height="1023"></rect>
    </defs>
    <g id="Desktop" stroke="none" stroke-width="1" fill="none" fill-rule="evenodd">
        <g id="Vision_MAIN" transform="translate(-12073.000000, 0.000000)">
            <g id="quote" transform="translate(8788.000000, -45.000000)">
                <g id="Group-7" transform="translate(3286.000000, 0.000000)">
                    <g id="Group-10">
                        <mask id="mask-2" fill="white">
                            <use xlink:href="#path-1"></use>
                        </mask>
                        <use id="Rectangle" stroke="#979797" fill="#D8D8D8" xlink:href="#path-1"></use>
                        <g id="lobster-logo-white" mask="url(#mask-2)">
                            <g transform="translate(-769.000000, -504.000000)">
                                <circle id="Oval" fill="none" cx="1060.45037" cy="1060.63529" r="1060"></circle>
                                <path d="M1093.58318,1965.10117 C1593.27125,1965.10117 1997.58318,1561.25237 1997.58318,1062.13668 C1997.58318,560.949966 1593.27125,157.101168 1093.58318,157.101168 C593.895108,157.101168 189.583181,560.949966 189.583181,1060.06566 C189.583181,1559.18135 593.895108,1965.10117 1093.58318,1965.10117" id="Path" fill="#009E48" fill-rule="nonzero"></path>
                                <path d="M1324.49801,958.554411 C1317.83134,958.554411 1312.49801,951.887744 1312.49801,942.554411 C1312.49801,933.221077 1317.83134,926.554411 1324.49801,926.554411 C1331.16467,926.554411 1336.49801,933.221077 1336.49801,942.554411 C1336.49801,950.554411 1331.16467,958.554411 1324.49801,958.554411 M1222.01149,957.837726 C1215.34482,957.837726 1210.01149,951.17106 1210.01149,941.837726 C1210.01149,932.504393 1215.34482,925.837726 1222.01149,925.837726 C1228.67815,925.837726 1234.01149,932.504393 1234.01149,941.837726 C1234.01149,949.837726 1228.67815,957.837726 1222.01149,957.837726 M1568.78316,1223.36883 C1550.16646,1200.46066 1498.30568,1191.02788 1465.06158,1193.72296 C1450.43418,1195.0705 1433.14725,1197.76558 1414.53056,1203.15574 C1414.53056,1200.46066 1414.53056,1199.11312 1414.53056,1196.41804 C1414.53056,1111.52305 1387.93528,1038.75592 1348.04237,996.982191 C1358.68048,988.896954 1365.3293,974.074019 1365.3293,957.903545 C1365.3293,932.300294 1348.04237,910.739662 1326.76615,910.739662 C1312.13874,910.739662 1300.17087,920.172439 1293.52205,933.647834 C1294.85181,918.824899 1297.51134,901.306886 1301.50063,886.483951 C1313.46851,848.752844 1337.40426,831.234831 1348.04237,831.234831 C1353.36142,831.234831 1357.35071,827.192212 1357.35071,821.802054 C1357.35071,816.411896 1353.36142,812.369278 1348.04237,812.369278 C1326.76615,812.369278 1297.51134,836.624989 1284.2137,879.746253 C1274.90536,909.392123 1273.57559,952.513387 1273.57559,960.598624 C1272.24583,960.598624 1272.24583,960.598624 1270.91607,960.598624 L1270.91607,960.598624 C1270.91607,960.598624 1270.91607,960.598624 1270.91607,960.598624 C1270.91607,953.860927 1269.5863,909.392123 1258.94819,879.746253 C1242.99103,833.92991 1215.06599,812.369278 1196.44929,812.369278 C1191.13024,812.369278 1187.14095,816.411896 1187.14095,821.802054 C1187.14095,827.192212 1191.13024,831.234831 1196.44929,831.234831 C1207.0874,831.234831 1229.69339,846.057765 1242.99103,886.483951 C1246.98032,898.611807 1249.63985,912.087202 1250.96961,925.562597 C1244.32079,917.47736 1233.68268,912.087202 1223.04457,912.087202 C1201.76835,912.087202 1184.48142,932.300294 1184.48142,957.903545 C1184.48142,974.074019 1192.46,988.896954 1203.09811,996.982191 C1163.2052,1038.75592 1136.60992,1111.52305 1136.60992,1196.41804 C1136.60992,1199.11312 1136.60992,1201.8082 1136.60992,1203.15574 C1117.99323,1197.76558 1100.7063,1193.72296 1084.74913,1192.37542 C1051.50504,1189.68034 999.644252,1199.11312 981.027559,1222.02129 C962.410866,1244.92946 963.74063,1309.61136 974.37874,1316.34906 C983.687086,1323.08675 981.027559,1274.57533 1006.29307,1253.0147 C1031.55858,1231.45407 1090.06819,1238.19176 1090.06819,1238.19176 C1090.06819,1238.19176 1055.49433,1265.14255 1039.53717,1286.70319 C1023.58,1309.61136 1011.61213,1391.81127 1019.59071,1390.46373 C1027.56929,1389.11619 1044.85622,1323.08675 1062.14315,1306.91628 C1079.43008,1290.74581 1119.32299,1286.70319 1119.32299,1286.70319 C1119.32299,1286.70319 1090.06819,1316.34906 1082.08961,1341.95231 C1074.11102,1367.55556 1054.16457,1425.49976 1063.47291,1428.19484 C1071.4515,1432.23745 1091.39795,1364.86048 1108.68488,1345.99493 C1123.31229,1332.51953 1141.92898,1325.78183 1160.54567,1321.73921 C1169.85402,1340.60477 1215.06599,1354.08016 1272.24583,1355.4277 L1272.24583,1355.4277 L1277.56489,1355.4277 C1336.07449,1355.4277 1383.94599,1340.60477 1393.25434,1321.73921 C1411.87103,1325.78183 1429.15796,1332.51953 1443.78536,1345.99493 C1461.07229,1364.86048 1481.01875,1432.23745 1488.99733,1428.19484 C1496.97591,1424.15222 1478.35922,1367.55556 1470.38064,1341.95231 C1462.40205,1316.34906 1433.14725,1286.70319 1433.14725,1286.70319 C1433.14725,1286.70319 1471.7104,1289.39827 1490.32709,1306.91628 C1507.61402,1323.08675 1524.90095,1389.11619 1532.87953,1390.46373 C1540.85812,1391.81127 1530.22001,1309.61136 1512.93308,1286.70319 C1496.97591,1263.79502 1462.40205,1238.19176 1462.40205,1238.19176 C1462.40205,1238.19176 1520.91166,1231.45407 1546.17717,1253.0147 C1571.44268,1274.57533 1568.78316,1323.08675 1578.0915,1316.34906 C1586.07009,1310.9589 1587.39985,1246.277 1568.78316,1223.36883 M1445.08468,1113.61009 C1445.08468,1113.61009 1455.72212,1135.12065 1473.00796,1136.46506 C1490.29381,1137.80947 1556.77781,1094.78835 1572.73397,1077.31103 C1588.69013,1058.48929 1596.66821,1045.04519 1583.37141,1031.60109 C1571.40429,1019.50141 1531.51389,1027.56786 1515.55773,1036.97873 C1500.93125,1046.3896 1445.08468,1113.61009 1445.08468,1113.61009 M1581.89089,1004.17362 C1593.84789,1009.55379 1612.44765,1000.13848 1632.37598,982.652912 C1652.3043,965.16734 1657.61852,884.4647 1643.00442,875.049392 C1628.39031,865.634084 1564.61968,907.330448 1556.64835,926.161064 C1550.00557,944.99168 1569.9339,998.793441 1581.89089,1004.17362 M1525.11745,873.608205 C1556.98683,881.696879 1607.44666,864.17142 1628.69291,835.861063 C1649.93916,807.550706 1643.29971,753.626217 1632.67658,725.315861 C1622.05346,695.657392 1598.15143,648.473464 1560.9705,617.466883 C1523.78956,587.808414 1450.75559,567.58673 1450.75559,567.58673 C1450.75559,567.58673 1450.75559,602.637648 1472.00184,625.555556 C1493.24808,648.473464 1533.0848,664.650811 1546.3637,701.049841 C1580.88885,791.37336 1493.24808,794.069584 1491.92019,795.417696 C1469.34605,800.810145 1412.24676,713.182851 1393.6563,746.885656 C1412.24676,826.424277 1493.24808,864.17142 1525.11745,873.608205 M1025.2257,1035.96492 C1009.31488,1026.51997 969.537826,1017.07501 957.604711,1030.56781 C945.671597,1044.0606 952.301105,1057.55339 968.211925,1076.4433 C984.122745,1095.33322 1050.41783,1137.16088 1067.65455,1135.8116 C1084.89127,1134.46232 1095.49848,1112.87385 1095.49848,1112.87385 C1095.49848,1112.87385 1041.13652,1045.40988 1025.2257,1035.96492 M983.909707,925.637496 C977.279432,906.80688 912.302739,865.110516 899.04219,874.525824 C884.455585,883.941132 889.759805,965.988817 909.650629,982.129345 C929.541454,999.614917 946.780168,1009.03023 960.040717,1003.65005 C971.975212,998.269873 991.866036,944.468112 983.909707,925.637496 M1149.9464,738.125598 C1130.04338,707.132495 1079.6224,798.764277 1055.73878,794.721698 C1053.08504,794.721698 965.511761,798.764277 993.375987,705.784969 C1005.3178,668.054235 1042.4701,649.188869 1062.37312,624.933397 C1082.27614,599.330399 1079.6224,564.294718 1079.6224,564.294718 C1079.6224,564.294718 1007.97153,589.897716 973.472969,622.238345 C938.974403,655.9265 919.071385,704.437443 911.110178,735.430545 C903.148971,765.076122 899.168367,818.97717 923.051989,845.927694 C946.935611,872.878218 997.35659,886.35348 1029.20142,875.57327 C1059.71938,863.445535 1136.67772,818.97717 1149.9464,738.125598" id="Shape" fill="#FFFFFF" fill-rule="nonzero"></path>
                            </g>
                        </g>
                    </g>
                </g>
            </g>
        </g>
    </g>
</svg>